<svg xmlns="http://www.w3.org/2000/svg" width="200" height="200" viewBox="0 0 200 200">
<path d="M25.637,2.96883l1.83754,-1.49588c1.77219,-1.44297 3.67516,-1.49512 53.70277,-1.46865c55.64766,0.0288 58.16992,0.17823 68.78672,4.07516c8.23438,3.02293 13.6375,6.62645 21.2957,14.20398c5.85781,5.7952 7.65234,8.17215 10.28711,13.62023c4.24453,8.77992 5.78867,15.60805 5.80273,25.66742c0.01016,6.87031 -0.325,9.16445 -2.10586,14.39883c-3.13906,9.22656 -7.51523,15.74258 -13.59375,20.23555c-1.73711,1.28438 -3.16641,2.56445 -3.17617,2.84492c-0.01016,0.28008 1.49883,1.39922 3.35352,2.48633c8.41641,4.93242 17.0418,17.43945 19.99844,28.99883c7.03125,27.4918 -9.66953,58.06172 -37.60586,68.83438c-10.83086,4.17695 -15.11602,4.63008 -43.8168,4.63008h-26.0043v-45.14141l18.09531,-0.01563c21.66953,-0.01875 26.9625,-0.64063 31.27969,-3.675c5.13906,-3.61133 7.74883,-8.23281 8.09375,-14.33086c0.36172,-6.40703 -0.78789,-10.05703 -4.44414,-14.10977c-4.25508,-4.71563 -6.16719,-5.22695 -19.5332,-5.22695h-11.69922v-42.58164l5.25352,-0.4957c2.88906,-0.27344 7.81016,-0.49883 10.93516,-0.50195c6.37266,-0.00625 9.03828,-1.0375 12.10547,-4.68242c3.07539,-3.65469 4.10664,-7.92695 2.95391,-12.23633c-1.3,-4.86133 -3.65117,-7.90508 -7.43281,-9.62305c-3.00195,-1.36289 -6.09023,-1.44922 -52.29727,-1.46563c-46.76086,-0.01602 -49.16891,-0.08555 -50.40875,-1.45508c-1.13477,-1.25469 -1.32465,-4.00234 -1.48266,-21.4641zM50.15348,67.37148c0,-6.82656 0.2543,-8.7918 1.28789,-9.9332c1.18633,-1.31094 2.91641,-1.42383 21.79258,-1.42383c19.4668,0 20.58281,0.07891 22.06094,1.55664c1.51133,1.51172 1.55664,2.59414 1.55664,37.59883c0,29.88828 -0.18867,36.3 -1.10391,37.55313c-0.84492,1.15664 -2.35117,1.60156 -6.4207,1.89961l-5.31758,0.38945l-0.77813,12.45273l-7.00469,0.77813l-0.19141,24.51641c-0.18711,23.89375 -0.23359,24.55078 -1.83789,25.87852c-1.48086,1.22578 -3.83125,1.36211 -23.48516,1.36211c-19.2293,0 -22.00938,-0.1543 -23.26242,-1.28789c-1.3091,-1.18477 -1.42273,-2.88984 -1.41184,-21.20898c0.00699,-11.16992 0.33621,-20.4332 0.74871,-21.08789c0.61176,-0.96836 4.02383,-1.23359 20.02945,-1.55664l19.29258,-0.38906l0.23281,-2.77617c0.19531,-2.32266 -0.08555,-2.92109 -1.71797,-3.66523c-1.80625,-0.82266 -1.96719,-1.33867 -2.17813,-6.95234l-0.22813,-6.06367l-4.28086,-0.24219c-5.02305,-0.28398 -7.78281,-2.30625 -7.78281,-5.70352c0,-1.2707 -0.56523,-2.475 -1.36211,-2.90273c-0.74961,-0.40156 -3.81363,-2.68828 -6.81012,-5.08164l-5.44809,-4.35156l-13.42566,-0.00391c-12.38508,-0.00469 -13.5463,-0.12539 -14.98227,-1.56133c-2.00101,-2.00078 -2.00101,-5.78203 0,-7.78281c1.44997,-1.45 2.59406,-1.55664 16.72332,-1.55664h15.16594l5.06984,4.30078l5.06914,4.3v-26.02852l-2.52969,2.35664c-2.3682,2.20742 -3.72246,3.56641 -5.34523,4.40234c-2.78941,1.43672 -6.37348,1.3293 -17.26891,1.3293c-17.44089,0 -18.44101,-0.27813 -18.44101,-5.12461c0,-4.72109 0.88649,-4.99336 16.22753,-4.99336c8.44379,0 11.7002,0.17266 14.46547,-0.90898c2.29055,-0.89688 4.24406,-2.65508 8.52934,-6.08555l4.3625,-3.49219zM77.39372,70.64414c0,-2.66016 0.29922,-3.15586 2.4457,-4.05859c2.95352,-1.24141 4.99805,-0.81172 6.52891,1.37344c2.48828,3.55313 0.17461,8.29141 -4.04844,8.29141c-3.10703,0 -4.92617,-2.07031 -4.92617,-5.60625z" fill-rule="evenodd"></path>
</svg>